<svg version="1.1" id="Layer_1" xmlns="http://www.w3.org/2000/svg" xmlns:xlink="http://www.w3.org/1999/xlink" x="0px" y="0px"
	 width="100%" viewBox="0 0 480 560" enable-background="new 0 0 480 560" xml:space="preserve">
<path fill="#000000" opacity="1.000000" stroke="none" 
	d="
M47.972244,309.161743 
	C55.117752,291.280731 64.705215,275.421448 78.290878,262.173462 
	C80.780533,259.745728 81.022293,257.342163 79.881157,254.084976 
	C70.177269,226.386642 69.777679,198.484985 77.956635,170.297424 
	C81.789894,157.086670 87.237343,144.655624 94.131622,132.829651 
	C95.603951,130.304123 95.642204,128.474228 93.888008,126.091927 
	C80.770355,108.277351 76.937218,87.718758 76.857361,66.221092 
	C76.839714,61.472569 77.919159,56.620872 79.146133,51.989613 
	C81.078903,44.694286 86.123871,41.836369 93.627609,43.320164 
	C101.919151,44.959740 109.329613,48.750629 116.476997,53.086258 
	C129.434097,60.946075 142.392166,68.805542 155.268021,76.796974 
	C157.817154,78.379097 159.956589,78.493469 162.686844,77.242157 
	C181.881516,68.444931 202.099503,62.852367 222.933121,60.082260 
	C237.073608,58.202099 251.377884,58.299671 265.741150,59.317158 
	C289.988068,61.034798 312.769409,67.777794 334.976379,77.034645 
	C337.872681,78.241974 340.128876,77.568260 342.487701,76.149002 
	C355.044647,68.593727 367.552460,60.955601 380.164307,53.493210 
	C387.330750,49.252834 394.623779,45.201057 402.902649,43.433815 
	C411.192810,41.664158 415.982727,44.334797 418.483429,52.453999 
	C420.770050,59.877972 420.672089,67.591965 420.269165,75.219627 
	C419.525970,89.288734 416.529327,102.864792 410.060760,115.509743 
	C408.849396,117.877686 407.666351,120.363251 405.955627,122.351845 
	C402.010071,126.938362 402.256409,131.066757 405.291809,136.265915 
	C415.895996,154.429062 422.178650,174.017715 424.515961,195.039276 
	C427.040405,217.743759 423.857422,239.459656 415.261810,260.447540 
	C413.674255,264.323944 414.001526,266.837860 416.740601,270.164734 
	C441.992798,300.835754 452.040802,336.200409 447.113800,375.430389 
	C444.152557,399.008545 435.435089,420.446472 418.434998,437.852783 
	C409.640594,446.857300 399.284210,453.291382 387.343994,457.151367 
	C384.725098,457.997986 382.495789,459.002777 380.868896,461.406799 
	C373.888550,471.721100 365.139526,480.361176 355.140198,487.720398 
	C352.557739,489.621002 351.695496,491.336487 352.593353,494.753082 
	C356.144196,508.264862 347.918549,522.726379 334.522614,524.069824 
	C326.367706,524.887695 318.150787,527.115112 310.271698,526.809631 
	C301.590179,526.473145 292.812897,525.460815 284.038300,524.889771 
	C277.631317,524.472839 272.543152,519.683044 269.505646,513.748413 
	C267.722992,510.265503 265.349854,509.196869 261.553314,509.321594 
	C253.396439,509.589630 245.219543,509.556274 237.060623,509.315277 
	C233.311737,509.204529 230.988190,510.374817 228.926300,513.636841 
	C222.617798,523.617249 214.156555,526.821777 202.939178,523.847412 
	C201.306488,523.414490 200.047104,523.659363 198.678925,524.385193 
	C191.862396,528.001587 184.960602,528.027100 178.086258,524.632385 
	C175.985886,523.595215 174.065231,523.663635 171.847626,524.228638 
	C158.938034,527.517700 144.647903,517.637695 145.008316,504.212708 
	C145.266968,494.578369 141.485413,489.773621 133.781219,485.131897 
	C118.524193,475.939636 107.202728,462.581848 98.040611,447.386383 
	C96.603874,445.003510 95.528221,442.346375 92.881592,440.311737 
	C89.401474,442.835236 86.024124,445.496918 82.439972,447.842682 
	C72.264503,454.502380 66.539810,453.387177 60.004444,443.121857 
	C49.478172,426.587952 43.469395,408.404785 40.505013,389.073181 
	C36.713287,364.346191 37.856525,340.031982 45.603512,316.146362 
	C46.322025,313.931030 47.090332,311.731842 47.972244,309.161743 
M213.281281,471.054535 
	C220.749329,474.761688 225.984787,480.606506 229.546692,488.050812 
	C230.329376,489.686615 230.866196,491.355713 233.183594,491.667664 
	C243.639236,493.075043 254.069962,492.964722 264.521149,491.653595 
	C266.511993,491.403809 267.351654,490.315887 267.952057,488.591888 
	C271.340240,478.863342 278.643738,473.201508 287.894104,469.631134 
	C299.411133,465.185791 311.275085,464.315582 323.143219,467.474670 
	C327.448853,468.620728 329.710663,467.525177 331.692841,464.122009 
	C332.613861,462.540771 333.714325,461.064545 334.647583,459.489838 
	C348.307068,436.441620 353.408691,411.766632 348.768341,385.230835 
	C343.495636,355.078491 328.263000,331.789093 301.218597,316.866241 
	C283.692322,307.195435 264.712799,304.309296 244.839691,304.992798 
	C225.580795,305.655151 207.501831,310.284851 191.366562,320.590759 
	C163.635971,338.302856 149.161621,364.158508 147.091141,396.951324 
	C145.511826,421.964813 151.807617,444.730499 166.632843,465.075775 
	C168.663681,467.862762 170.600327,468.736023 174.143433,467.737335 
	C187.260284,464.040070 200.140823,465.130737 213.281281,471.054535 
M379.770081,239.261566 
	C389.525696,219.897812 390.812531,199.831955 384.470367,179.246048 
	C372.771820,141.273911 330.409363,123.369423 295.521393,141.895218 
	C273.162598,153.767929 261.507660,172.900558 259.333038,198.014374 
	C258.802094,204.145981 259.208588,209.555130 265.706635,212.671600 
	C267.397675,213.482651 268.679749,215.311081 269.929077,216.851166 
	C276.904083,225.449539 277.382507,235.387680 275.684296,245.726990 
	C275.124512,249.135025 273.929382,252.408493 277.203369,255.409897 
	C295.163208,271.874237 316.128571,277.365326 339.577728,271.546570 
	C357.388550,267.126923 370.781067,256.298218 379.770081,239.261566 
M118.260017,241.231873 
	C138.650055,277.292633 189.110107,284.652344 218.768188,256.243927 
	C221.808640,253.331619 223.025436,250.787140 222.021790,246.269669 
	C218.732651,231.464996 221.361435,218.386932 235.316772,209.700699 
	C237.551010,208.310074 237.745193,206.396103 237.717560,204.144821 
	C237.502808,186.656235 231.876907,171.025681 220.500397,157.864197 
	C196.045670,129.572540 156.757431,125.521690 129.219528,152.643723 
	C107.164070,174.366119 102.556419,211.197128 118.260017,241.231873 
M115.858177,349.469543 
	C115.871567,345.022858 114.925362,340.849945 111.923790,337.430573 
	C107.875938,332.819366 104.738861,332.994263 101.941933,338.383270 
	C97.054359,347.800507 90.312744,356.230682 87.192696,366.600769 
	C85.374786,372.643005 83.763504,378.899506 80.852737,384.423920 
	C76.820518,392.076691 78.167091,399.657898 79.506943,407.300262 
	C80.461349,412.744019 85.820366,415.414246 89.950409,412.783508 
	C93.726784,410.378021 97.174187,407.464935 99.447029,403.428223 
	C104.106277,395.153046 108.302361,386.648254 110.954247,377.514008 
	C113.529846,368.642548 117.223824,359.925293 115.858177,349.469543 
z"/>
<path fill="#000000" opacity="1.000000" stroke="none" 
	d="
M348.395386,183.722092 
	C357.085327,199.178528 355.421967,217.769043 344.207397,229.349731 
	C334.621094,239.248993 322.840729,242.753784 309.577911,239.012314 
	C296.629028,235.359406 288.491394,226.577698 284.542633,213.578003 
	C276.622253,187.503220 298.655121,160.357513 327.619720,167.863739 
	C336.491852,170.162949 343.369629,175.542404 348.395386,183.722092 
M301.592010,190.054337 
	C299.009399,193.442734 298.442383,196.938004 301.200500,200.493942 
	C303.478210,203.430496 306.340637,205.098083 310.224213,204.185242 
	C314.490753,203.182404 316.735657,200.035782 317.326141,196.138885 
	C317.820984,192.873566 315.879395,189.972549 313.054657,188.294449 
	C309.261688,186.041092 305.471802,186.470963 301.592010,190.054337 
z"/>
<path fill="#000000" opacity="1.000000" stroke="none" 
	d="
M159.398987,234.749542 
	C145.540482,225.217484 140.530777,211.855774 143.188095,196.278458 
	C145.829773,180.792892 155.708832,170.980133 171.217453,167.245117 
	C191.908234,162.262070 212.864258,178.791443 213.457886,199.964523 
	C213.880142,215.025421 209.091003,227.162109 196.042084,235.130905 
	C184.054916,242.451294 171.781906,242.214752 159.398987,234.749542 
M184.039871,188.291199 
	C179.203079,192.738937 178.747406,198.155121 182.882767,202.044693 
	C186.579514,205.521744 191.933395,205.221710 195.204346,201.244659 
	C197.774078,198.120193 198.450546,194.701263 196.062668,191.146194 
	C193.218353,186.911591 189.323624,186.092773 184.039871,188.291199 
z"/>
</svg>